<mxfile host="app.diagrams.net" modified="2023-07-27T13:35:12.468Z" agent="Mozilla/5.0 (Macintosh; Intel Mac OS X 10_15_7) AppleWebKit/537.36 (KHTML, like Gecko) Chrome/114.0.0.0 Safari/537.36" etag="jONHC9CfGd_hkmZlD4rh" version="21.6.3" type="device">
  <diagram name="Page-1" id="V2CVHheXFw32wh74PCrO">
    <mxGraphModel dx="2062" dy="1994" grid="1" gridSize="10" guides="1" tooltips="1" connect="1" arrows="1" fold="1" page="1" pageScale="1" pageWidth="850" pageHeight="1100" math="0" shadow="0">
      <root>
        <mxCell id="0" />
        <mxCell id="1" parent="0" />
        <mxCell id="5c894WKr9K2ND64rboF7-57" value="" style="endArrow=classic;html=1;rounded=0;fontFamily=Helvetica;fontSize=12;fontColor=default;exitX=0.5;exitY=0;exitDx=0;exitDy=0;entryX=0.5;entryY=0;entryDx=0;entryDy=0;" edge="1" parent="1" source="5c894WKr9K2ND64rboF7-7" target="5c894WKr9K2ND64rboF7-22">
          <mxGeometry width="50" height="50" relative="1" as="geometry">
            <mxPoint x="430" y="430" as="sourcePoint" />
            <mxPoint x="480" y="380" as="targetPoint" />
          </mxGeometry>
        </mxCell>
        <mxCell id="5c894WKr9K2ND64rboF7-1" value="&lt;h1&gt;DEPLOYMENT PIPELINE&lt;/h1&gt;" style="rounded=1;whiteSpace=wrap;html=1;" vertex="1" parent="1">
          <mxGeometry x="150" y="-10" width="210" height="60" as="geometry" />
        </mxCell>
        <mxCell id="5c894WKr9K2ND64rboF7-5" value="" style="shape=image;html=1;verticalAlign=top;verticalLabelPosition=bottom;labelBackgroundColor=#ffffff;imageAspect=0;aspect=fixed;image=https://cdn0.iconfinder.com/data/icons/phosphor-regular-vol-4/256/slack-logo-128.png;rounded=1;strokeColor=default;fontFamily=Helvetica;fontSize=12;fontColor=default;fillColor=default;" vertex="1" parent="1">
          <mxGeometry x="220" y="60" width="70" height="70" as="geometry" />
        </mxCell>
        <mxCell id="5c894WKr9K2ND64rboF7-7" value="slackbot /request-qdrant-cluster {parameters} calls GitHub API with event trigger for GH Action Pipeline&lt;br&gt;/cleanup-qdrant-cluster {parameters} triggers cluster delete using cluster name and slack user parameters" style="rounded=0;whiteSpace=wrap;html=1;strokeColor=default;fontFamily=Helvetica;fontSize=12;fontColor=default;fillColor=default;" vertex="1" parent="1">
          <mxGeometry x="-30" y="130" width="570" height="50" as="geometry" />
        </mxCell>
        <mxCell id="5c894WKr9K2ND64rboF7-8" value="&lt;font style=&quot;font-size: 14px;&quot;&gt;Slack event triggers GitHub Action job&lt;/font&gt;" style="rounded=1;whiteSpace=wrap;html=1;strokeColor=default;fontFamily=Helvetica;fontSize=12;fontColor=default;fillColor=default;" vertex="1" parent="1">
          <mxGeometry x="115" y="200" width="280" height="60" as="geometry" />
        </mxCell>
        <mxCell id="5c894WKr9K2ND64rboF7-9" value="&lt;font style=&quot;font-size: 13px;&quot;&gt;&lt;b&gt;Parameters&lt;/b&gt;&lt;/font&gt;&lt;br&gt;- Name&lt;br&gt;- Min Nodes&lt;br&gt;- Max Nodes&lt;br&gt;- CPU Request / Limt&lt;br&gt;- Memory Request/Limit&amp;nbsp;&lt;br&gt;- Cloud Provider&lt;br&gt;- Slack User Name" style="whiteSpace=wrap;html=1;aspect=fixed;rounded=0;strokeColor=default;fontFamily=Helvetica;fontSize=12;fontColor=default;fillColor=default;" vertex="1" parent="1">
          <mxGeometry x="180" y="270" width="150" height="150" as="geometry" />
        </mxCell>
        <mxCell id="5c894WKr9K2ND64rboF7-10" value="&lt;font style=&quot;font-size: 14px;&quot;&gt;Pipeline executes with parameters&lt;/font&gt;" style="rounded=1;whiteSpace=wrap;html=1;strokeColor=default;fontFamily=Helvetica;fontSize=12;fontColor=default;fillColor=default;" vertex="1" parent="1">
          <mxGeometry x="115" y="450" width="280" height="60" as="geometry" />
        </mxCell>
        <mxCell id="5c894WKr9K2ND64rboF7-11" value="&lt;font style=&quot;font-size: 14px;&quot;&gt;Pulls Kubernetes configuration information from selected cloud provider based on GitHub Action secrets&lt;/font&gt;" style="rounded=1;whiteSpace=wrap;html=1;strokeColor=default;fontFamily=Helvetica;fontSize=12;fontColor=default;fillColor=default;" vertex="1" parent="1">
          <mxGeometry x="115" y="540" width="280" height="60" as="geometry" />
        </mxCell>
        <mxCell id="5c894WKr9K2ND64rboF7-12" value="&lt;font style=&quot;font-size: 14px;&quot;&gt;Anchore Image Scan executes on Qdrant Docker image; pipeline fails if critical or stop results are reported&lt;/font&gt;" style="rounded=1;whiteSpace=wrap;html=1;strokeColor=default;fontFamily=Helvetica;fontSize=12;fontColor=default;fillColor=default;" vertex="1" parent="1">
          <mxGeometry x="115" y="630" width="280" height="60" as="geometry" />
        </mxCell>
        <mxCell id="5c894WKr9K2ND64rboF7-13" value="&lt;font style=&quot;font-size: 14px;&quot;&gt;Parameters from Slack passed into Kubernetes manifest template&amp;nbsp;&lt;/font&gt;" style="rounded=1;whiteSpace=wrap;html=1;strokeColor=default;fontFamily=Helvetica;fontSize=12;fontColor=default;fillColor=default;" vertex="1" parent="1">
          <mxGeometry x="115" y="720" width="280" height="60" as="geometry" />
        </mxCell>
        <mxCell id="5c894WKr9K2ND64rboF7-14" value="&lt;font style=&quot;font-size: 14px;&quot;&gt;Applies Kubernetes manifest, deploys Qdrant cluster with OAuth sidecar&amp;nbsp;&lt;br&gt;uses ingress controller to route &amp;amp; authenticate to cluster&lt;br&gt;uses ClusterIP service for Raft so all communication stays internal, on private subnet with explicit ingress/egress rules&lt;br&gt;&lt;/font&gt;" style="rounded=1;whiteSpace=wrap;html=1;strokeColor=default;fontFamily=Helvetica;fontSize=12;fontColor=default;fillColor=default;" vertex="1" parent="1">
          <mxGeometry x="-103.75" y="800" width="757.5" height="180" as="geometry" />
        </mxCell>
        <mxCell id="5c894WKr9K2ND64rboF7-17" value="&lt;font style=&quot;font-size: 14px;&quot;&gt;Waits for cluster to be active&lt;/font&gt;" style="rounded=1;whiteSpace=wrap;html=1;strokeColor=default;fontFamily=Helvetica;fontSize=12;fontColor=default;fillColor=default;" vertex="1" parent="1">
          <mxGeometry x="115" y="1020" width="280" height="60" as="geometry" />
        </mxCell>
        <mxCell id="5c894WKr9K2ND64rboF7-18" value="&lt;font style=&quot;font-size: 14px;&quot;&gt;Executes regression test to ensure nothing broke during deployment&lt;/font&gt;" style="rounded=1;whiteSpace=wrap;html=1;strokeColor=default;fontFamily=Helvetica;fontSize=12;fontColor=default;fillColor=default;" vertex="1" parent="1">
          <mxGeometry x="115" y="1120" width="280" height="60" as="geometry" />
        </mxCell>
        <mxCell id="5c894WKr9K2ND64rboF7-19" value="&lt;span style=&quot;font-size: 14px;&quot;&gt;Gets Ingress Load Balancer URL&lt;/span&gt;" style="rounded=1;whiteSpace=wrap;html=1;strokeColor=default;fontFamily=Helvetica;fontSize=12;fontColor=default;fillColor=default;" vertex="1" parent="1">
          <mxGeometry x="115" y="1230" width="280" height="60" as="geometry" />
        </mxCell>
        <mxCell id="5c894WKr9K2ND64rboF7-20" value="&lt;span style=&quot;font-size: 14px;&quot;&gt;ZAProxy Scan of Load Balancer URL to check for vulnerabilities&lt;/span&gt;" style="rounded=1;whiteSpace=wrap;html=1;strokeColor=default;fontFamily=Helvetica;fontSize=12;fontColor=default;fillColor=default;" vertex="1" parent="1">
          <mxGeometry x="115" y="1320" width="280" height="60" as="geometry" />
        </mxCell>
        <mxCell id="5c894WKr9K2ND64rboF7-21" value="&lt;span style=&quot;font-size: 14px;&quot;&gt;Updates Cloudflare or Akamai DNS CNAME with load balancer URL of ingress controller with passed name parameter&amp;nbsp;&lt;br&gt;{name}.subdomain.com&lt;br&gt;&lt;/span&gt;" style="rounded=1;whiteSpace=wrap;html=1;strokeColor=default;fontFamily=Helvetica;fontSize=12;fontColor=default;fillColor=default;" vertex="1" parent="1">
          <mxGeometry x="57.5" y="1420" width="395" height="100" as="geometry" />
        </mxCell>
        <mxCell id="5c894WKr9K2ND64rboF7-22" value="&lt;span style=&quot;font-size: 14px;&quot;&gt;Sends message to Slack user with details about how to access cluster or about which step failed&amp;nbsp;&lt;br&gt;&lt;/span&gt;" style="rounded=1;whiteSpace=wrap;html=1;strokeColor=default;fontFamily=Helvetica;fontSize=12;fontColor=default;fillColor=default;" vertex="1" parent="1">
          <mxGeometry x="57.5" y="1540" width="395" height="100" as="geometry" />
        </mxCell>
        <mxCell id="5c894WKr9K2ND64rboF7-23" value="&lt;h1&gt;USER FLOW&lt;/h1&gt;" style="rounded=1;whiteSpace=wrap;html=1;" vertex="1" parent="1">
          <mxGeometry x="1010" width="210" height="60" as="geometry" />
        </mxCell>
        <mxCell id="5c894WKr9K2ND64rboF7-24" value="&lt;h1&gt;NETWORKING SETUP&lt;/h1&gt;" style="rounded=1;whiteSpace=wrap;html=1;" vertex="1" parent="1">
          <mxGeometry x="2030" y="-10" width="210" height="60" as="geometry" />
        </mxCell>
        <mxCell id="5c894WKr9K2ND64rboF7-26" value="" style="shape=actor;whiteSpace=wrap;html=1;rounded=1;strokeColor=default;fontFamily=Helvetica;fontSize=12;fontColor=default;fillColor=default;" vertex="1" parent="1">
          <mxGeometry x="780" y="200" width="80" height="105" as="geometry" />
        </mxCell>
        <mxCell id="5c894WKr9K2ND64rboF7-27" value="User calls DNS to authenticate" style="rounded=0;whiteSpace=wrap;html=1;strokeColor=default;fontFamily=Helvetica;fontSize=12;fontColor=default;fillColor=default;" vertex="1" parent="1">
          <mxGeometry x="940" y="250" width="120" height="60" as="geometry" />
        </mxCell>
        <mxCell id="5c894WKr9K2ND64rboF7-28" value="Token returned to user,&amp;nbsp;&lt;br&gt;User calls DNS with token" style="rounded=0;whiteSpace=wrap;html=1;strokeColor=default;fontFamily=Helvetica;fontSize=12;fontColor=default;fillColor=default;" vertex="1" parent="1">
          <mxGeometry x="1050" y="130" width="170" height="70" as="geometry" />
        </mxCell>
        <mxCell id="5c894WKr9K2ND64rboF7-30" value="User makes Qdrant requests to DNS with token returned from OAuth" style="rounded=0;whiteSpace=wrap;html=1;strokeColor=default;fontFamily=Helvetica;fontSize=12;fontColor=default;fillColor=default;" vertex="1" parent="1">
          <mxGeometry x="1250" y="45" width="205" height="100" as="geometry" />
        </mxCell>
        <mxCell id="5c894WKr9K2ND64rboF7-31" value="OAuth2 Proxy validates token,&amp;nbsp;&lt;br&gt;returns request to Qdrant API service" style="rounded=0;whiteSpace=wrap;html=1;strokeColor=default;fontFamily=Helvetica;fontSize=12;fontColor=default;fillColor=default;" vertex="1" parent="1">
          <mxGeometry x="1250" y="200" width="205" height="100" as="geometry" />
        </mxCell>
        <mxCell id="5c894WKr9K2ND64rboF7-32" value="Qdrant gets request,&amp;nbsp;&lt;br&gt;returns requested data to user" style="rounded=0;whiteSpace=wrap;html=1;strokeColor=default;fontFamily=Helvetica;fontSize=12;fontColor=default;fillColor=default;" vertex="1" parent="1">
          <mxGeometry x="1250" y="330" width="205" height="100" as="geometry" />
        </mxCell>
        <mxCell id="5c894WKr9K2ND64rboF7-35" value="" style="edgeStyle=none;orthogonalLoop=1;jettySize=auto;html=1;rounded=0;fontFamily=Helvetica;fontSize=12;fontColor=default;" edge="1" parent="1">
          <mxGeometry width="80" relative="1" as="geometry">
            <mxPoint x="860" y="274.40999999999997" as="sourcePoint" />
            <mxPoint x="940" y="274.40999999999997" as="targetPoint" />
            <Array as="points" />
          </mxGeometry>
        </mxCell>
        <mxCell id="5c894WKr9K2ND64rboF7-36" value="" style="edgeStyle=elbowEdgeStyle;elbow=vertical;endArrow=classic;html=1;curved=0;rounded=0;endSize=8;startSize=8;fontFamily=Helvetica;fontSize=12;fontColor=default;" edge="1" parent="1">
          <mxGeometry width="50" height="50" relative="1" as="geometry">
            <mxPoint x="1020" y="250" as="sourcePoint" />
            <mxPoint x="1070" y="200" as="targetPoint" />
          </mxGeometry>
        </mxCell>
        <mxCell id="5c894WKr9K2ND64rboF7-37" value="" style="edgeStyle=elbowEdgeStyle;elbow=horizontal;endArrow=classic;html=1;curved=0;rounded=0;endSize=8;startSize=8;fontFamily=Helvetica;fontSize=12;fontColor=default;" edge="1" parent="1">
          <mxGeometry width="50" height="50" relative="1" as="geometry">
            <mxPoint x="1200" y="130" as="sourcePoint" />
            <mxPoint x="1250" y="80" as="targetPoint" />
          </mxGeometry>
        </mxCell>
        <mxCell id="5c894WKr9K2ND64rboF7-38" value="" style="endArrow=classic;html=1;rounded=0;fontFamily=Helvetica;fontSize=12;fontColor=default;" edge="1" parent="1">
          <mxGeometry width="50" height="50" relative="1" as="geometry">
            <mxPoint x="1352" y="140" as="sourcePoint" />
            <mxPoint x="1351.91" y="200" as="targetPoint" />
          </mxGeometry>
        </mxCell>
        <mxCell id="5c894WKr9K2ND64rboF7-39" value="" style="endArrow=classic;html=1;rounded=0;fontFamily=Helvetica;fontSize=12;fontColor=default;exitX=0.5;exitY=1;exitDx=0;exitDy=0;" edge="1" parent="1" source="5c894WKr9K2ND64rboF7-31">
          <mxGeometry width="50" height="50" relative="1" as="geometry">
            <mxPoint x="1351.91" y="250" as="sourcePoint" />
            <mxPoint x="1351.91" y="330" as="targetPoint" />
          </mxGeometry>
        </mxCell>
        <mxCell id="5c894WKr9K2ND64rboF7-40" value="" style="edgeStyle=segmentEdgeStyle;endArrow=classic;html=1;curved=0;rounded=0;endSize=8;startSize=8;fontFamily=Helvetica;fontSize=12;fontColor=default;" edge="1" parent="1" target="5c894WKr9K2ND64rboF7-26">
          <mxGeometry width="50" height="50" relative="1" as="geometry">
            <mxPoint x="1255" y="420" as="sourcePoint" />
            <mxPoint x="820" y="370" as="targetPoint" />
            <Array as="points">
              <mxPoint x="820" y="420" />
            </Array>
          </mxGeometry>
        </mxCell>
        <mxCell id="5c894WKr9K2ND64rboF7-43" value="Public Authenticated User Request" style="rounded=0;whiteSpace=wrap;html=1;strokeColor=default;fontFamily=Helvetica;fontSize=12;fontColor=default;fillColor=default;" vertex="1" parent="1">
          <mxGeometry x="1770" y="240" width="340" height="60" as="geometry" />
        </mxCell>
        <mxCell id="5c894WKr9K2ND64rboF7-41" value="" style="shape=actor;whiteSpace=wrap;html=1;rounded=1;strokeColor=default;fontFamily=Helvetica;fontSize=12;fontColor=default;fillColor=default;" vertex="1" parent="1">
          <mxGeometry x="1770" y="260" width="80" height="105" as="geometry" />
        </mxCell>
        <mxCell id="5c894WKr9K2ND64rboF7-44" value="" style="rounded=1;whiteSpace=wrap;html=1;strokeColor=default;fontFamily=Helvetica;fontSize=12;fontColor=default;fillColor=default;" vertex="1" parent="1">
          <mxGeometry x="2120" y="100" width="1010" height="680" as="geometry" />
        </mxCell>
        <mxCell id="5c894WKr9K2ND64rboF7-45" value="Virtual Network" style="rounded=1;whiteSpace=wrap;html=1;strokeColor=default;fontFamily=Helvetica;fontSize=12;fontColor=default;fillColor=default;" vertex="1" parent="1">
          <mxGeometry x="2580" y="112.5" width="120" height="60" as="geometry" />
        </mxCell>
        <mxCell id="5c894WKr9K2ND64rboF7-46" value="" style="rounded=1;whiteSpace=wrap;html=1;strokeColor=default;fontFamily=Helvetica;fontSize=12;fontColor=default;fillColor=default;" vertex="1" parent="1">
          <mxGeometry x="2210" y="210" width="390" height="520" as="geometry" />
        </mxCell>
        <mxCell id="5c894WKr9K2ND64rboF7-47" value="Public Subnet" style="text;html=1;strokeColor=none;fillColor=none;align=center;verticalAlign=middle;whiteSpace=wrap;rounded=0;fontSize=12;fontFamily=Helvetica;fontColor=default;" vertex="1" parent="1">
          <mxGeometry x="2350" y="220" width="100" height="30" as="geometry" />
        </mxCell>
        <mxCell id="5c894WKr9K2ND64rboF7-48" value="Public Subnet" style="text;html=1;strokeColor=none;fillColor=none;align=center;verticalAlign=middle;whiteSpace=wrap;rounded=0;fontSize=12;fontFamily=Helvetica;fontColor=default;" vertex="1" parent="1">
          <mxGeometry x="2810" y="220" width="100" height="30" as="geometry" />
        </mxCell>
        <mxCell id="5c894WKr9K2ND64rboF7-49" value="" style="rounded=1;whiteSpace=wrap;html=1;strokeColor=default;fontFamily=Helvetica;fontSize=12;fontColor=default;fillColor=default;" vertex="1" parent="1">
          <mxGeometry x="2670" y="210" width="390" height="510" as="geometry" />
        </mxCell>
        <mxCell id="5c894WKr9K2ND64rboF7-50" value="Private Subnet" style="text;html=1;strokeColor=none;fillColor=none;align=center;verticalAlign=middle;whiteSpace=wrap;rounded=0;fontSize=12;fontFamily=Helvetica;fontColor=default;" vertex="1" parent="1">
          <mxGeometry x="2810" y="220" width="90" height="30" as="geometry" />
        </mxCell>
        <mxCell id="5c894WKr9K2ND64rboF7-51" value="Ingress Load Balancer" style="rounded=1;whiteSpace=wrap;html=1;strokeColor=default;fontFamily=Helvetica;fontSize=12;fontColor=default;fillColor=default;" vertex="1" parent="1">
          <mxGeometry x="2190" y="295" width="230" height="70" as="geometry" />
        </mxCell>
        <mxCell id="5c894WKr9K2ND64rboF7-52" value="K8s Nodes" style="rounded=1;whiteSpace=wrap;html=1;strokeColor=default;fontFamily=Helvetica;fontSize=12;fontColor=default;fillColor=default;" vertex="1" parent="1">
          <mxGeometry x="2750" y="280" width="280" height="240" as="geometry" />
        </mxCell>
        <mxCell id="5c894WKr9K2ND64rboF7-53" value="QDrant Ingress Service Oauth2 Proxy / Deployment" style="rounded=1;whiteSpace=wrap;html=1;strokeColor=default;fontFamily=Helvetica;fontSize=12;fontColor=default;fillColor=default;" vertex="1" parent="1">
          <mxGeometry x="2835" y="420" width="140" height="90" as="geometry" />
        </mxCell>
        <mxCell id="5c894WKr9K2ND64rboF7-42" value="" style="edgeStyle=none;orthogonalLoop=1;jettySize=auto;html=1;rounded=0;fontFamily=Helvetica;fontSize=12;fontColor=default;entryX=0.003;entryY=0.387;entryDx=0;entryDy=0;entryPerimeter=0;" edge="1" parent="1" target="5c894WKr9K2ND64rboF7-51">
          <mxGeometry width="80" relative="1" as="geometry">
            <mxPoint x="1850" y="324.40999999999997" as="sourcePoint" />
            <mxPoint x="2240" y="324.5" as="targetPoint" />
            <Array as="points" />
          </mxGeometry>
        </mxCell>
        <mxCell id="5c894WKr9K2ND64rboF7-54" value="" style="edgeStyle=elbowEdgeStyle;elbow=horizontal;endArrow=classic;html=1;curved=0;rounded=0;endSize=8;startSize=8;fontFamily=Helvetica;fontSize=12;fontColor=default;entryX=0.321;entryY=0.792;entryDx=0;entryDy=0;entryPerimeter=0;exitX=1;exitY=0.5;exitDx=0;exitDy=0;" edge="1" parent="1" source="5c894WKr9K2ND64rboF7-51" target="5c894WKr9K2ND64rboF7-52">
          <mxGeometry width="50" height="50" relative="1" as="geometry">
            <mxPoint x="2640" y="450" as="sourcePoint" />
            <mxPoint x="2690" y="500" as="targetPoint" />
          </mxGeometry>
        </mxCell>
        <mxCell id="5c894WKr9K2ND64rboF7-55" value="Use Node Affinity to ensure that pods only schedule on nodes in the private subnet&amp;nbsp;" style="shape=ext;double=1;rounded=0;whiteSpace=wrap;html=1;strokeColor=default;fontFamily=Helvetica;fontSize=12;fontColor=default;fillColor=default;" vertex="1" parent="1">
          <mxGeometry x="2712.5" y="600" width="305" height="80" as="geometry" />
        </mxCell>
        <mxCell id="5c894WKr9K2ND64rboF7-56" value="Networking Option 1 (pictured)&lt;br&gt;Use a segregated layer network, so the only way to the public subnet is through the ingress load balancer and the only way to the private subnet is through the public one&amp;nbsp;&lt;br&gt;In this case, the only way to authenticate via OAuth is through the Ingress Controller, and the only way to access the Qdrant DB is through the OAuth.&lt;br&gt;We can further secure the cluster by only allowing traffic from designated IPs (e.g., those of the subscriber&#39;s application) using NACLs and Security Groups + server-based firewalls.&amp;nbsp;&lt;br&gt;&lt;br&gt;Pros: security&lt;br&gt;Cons: complicated set up, but this can be mitigated by using Terraform, so you have initial challenges but then it can be replicated easily&amp;nbsp;&lt;br&gt;&lt;br&gt;Option 2&lt;br&gt;Deploy the cluster to the public subnet and rely on OAuth + use the K8s control plane to allow security groups (as in EKS)&lt;br&gt;This is not as complex, but also not as secure. So you might use it if you could be certain the data was open-source or ephemeral (transitory)&lt;br&gt;&lt;br&gt;&lt;b&gt;Important note for the Kubernetes deployments for both approaches&lt;/b&gt;&lt;br&gt;- Ingress Service goes to Oauth2 API Port; only Authenticated traffic is redirected to Qdrant API&lt;br&gt;- Raft Service is ClusterIP(internal only), non-authenticated so the multi-node cluster can form" style="text;html=1;strokeColor=none;fillColor=none;align=center;verticalAlign=middle;whiteSpace=wrap;rounded=0;fontSize=12;fontFamily=Helvetica;fontColor=default;" vertex="1" parent="1">
          <mxGeometry x="2250" y="790" width="810" height="440" as="geometry" />
        </mxCell>
      </root>
    </mxGraphModel>
  </diagram>
</mxfile>
